<?xml version="1.0" encoding="utf-8"?>
<!-- Generator: Adobe Illustrator 15.0.0, SVG Export Plug-In . SVG Version: 6.00 Build 0)  -->
<!DOCTYPE svg PUBLIC "-//W3C//DTD SVG 1.1//EN" "http://www.w3.org/Graphics/SVG/1.1/DTD/svg11.dtd">
<svg version="1.1" id="Calque_1" xmlns="http://www.w3.org/2000/svg" xmlns:xlink="http://www.w3.org/1999/xlink" x="0px" y="0px"
	 width="841.89px" height="595.28px" viewBox="0 0 841.89 595.28" enable-background="new 0 0 841.89 595.28" xml:space="preserve">
<linearGradient id="SVGID_1_" gradientUnits="userSpaceOnUse" x1="67.9131" y1="233.1846" x2="214.3271" y2="233.1846">
	<stop  offset="0" style="stop-color:#E3E4E4"/>
	<stop  offset="1" style="stop-color:#CFD1D2"/>
</linearGradient>
<path fill="url(#SVGID_1_)" d="M236.564,209.06c0-6.776-0.776-12.116-11.776-17.389c-11.004-5.275-16.602-7.851-21.417-10.27
	c-6.771-3.4-11.177-2.892-17.709,0.343c-6.718,3.326-73.239,35.465-80.563,39.127c-9.131,4.566-6.222,8.235,0.822,12.589
	c7.043,4.355,78.152,48.307,82.873,51.227c4.719,2.918,9.537,3.992,16.162,0c6.627-3.994,18.199-10.969,22.727-13.698
	c4.528-2.729,8.882-5.853,8.882-15.849C236.564,245.146,236.564,209.06,236.564,209.06z"/>
<linearGradient id="SVGID_2_" gradientUnits="userSpaceOnUse" x1="94.832" y1="336.3203" x2="237.2422" y2="336.3203">
	<stop  offset="0" style="stop-color:#D9DADB"/>
	<stop  offset="0.1334" style="stop-color:#D3D4D5"/>
	<stop  offset="0.4545" style="stop-color:#C6C7C8"/>
	<stop  offset="0.5743" style="stop-color:#C4C5C7"/>
	<stop  offset="0.6288" style="stop-color:#BEBFC1"/>
	<stop  offset="0.6701" style="stop-color:#B4B5B7"/>
	<stop  offset="0.7046" style="stop-color:#A5A7A8"/>
	<stop  offset="0.7199" style="stop-color:#9C9E9F"/>
	<stop  offset="0.7342" style="stop-color:#9C9E9F"/>
	<stop  offset="1" style="stop-color:#9C9E9F"/>
</linearGradient>
<path fill="url(#SVGID_2_)" d="M94.154,264.12c0-14.626,1.982-21.063,11.251-15.687c10.83,6.283,72.947,43.891,80.326,48.33
	c7.379,4.442,12.293,5.888,22.059,0c9.768-5.885,8.474-5.105,17.605-10.609c9.133-5.506,11.169-1.874,11.169,8.969
	c0,10.842,0,82.047,0,93.204c0,11.155-0.409,15.364-10.798,21.661c-10.389,6.298-13.69,8.299-19.952,12.095s-10.968,6.689-21.56,0
	c-10.591-6.691-73.014-46.115-79.451-50.181c-6.438-4.066-10.649-7.658-10.649-23.244S94.154,264.12,94.154,264.12z"/>
<g>
	<path fill="#005EA8" d="M398.983,339.559c-5.245,0-9.554,0-18.171,0c-8.613,0-39.704-3.936-39.704-41.58
		c0-37.648,24.348-43.266,41.018-43.266c11.613,0,25.285-2.059,25.285-16.483c0-11.237-11.088-16.854-26.631-16.854
		c-0.741,0-1.075,0-1.124,0c-0.456,0-0.94,0-1.464,0c-45.887,0-72.671,31.837-72.671,76.041c0,44.203,30.904,74.359,72.671,74.359
		c17.794,0,2.061,0,19.104,0c17.045,0,25.66-4.871,25.66-16.295C422.956,344.053,413.59,339.559,398.983,339.559z"/>
	<path fill="#005EA8" d="M639.94,288.191c0,0,18.683-6.039,18.683-28.376c0-32.728-28.094-38.488-45.513-38.488
		c-17.418,0-12.222,0-28.516,0c-16.297,0-22.336,6.882-22.336,15.03c0,9.413,7.023,13.908,23.038,13.908c16.014,0,9.551,0,23.318,0
		c13.767,0,17.842,8.429,17.842,14.608c0,6.181-3.091,14.89-18.264,14.89c-15.171,0-10.254,0-23.459,0
		c-13.203,0-22.476,4.215-22.476,14.33c0,10.113,10.114,13.625,22.055,13.625s11.94,0,26.408,0c14.469,0,24.585,4.074,24.585,16.576
		s-8.149,17.139-23.601,17.139c-15.452,0-8.989,0-24.723,0s-24.725,4.074-24.725,14.748c0,10.676,10.254,14.189,24.163,14.189
		c13.905,0,6.46,0,30.762,0c24.303,0,52.68-9.693,52.68-43.969C669.863,292.124,639.94,288.191,639.94,288.191z"/>
	<path fill="#005EA8" d="M260.554,251.62c6.365-3.692,15.895-9.59,24.761-14.939c8.866-5.351,7.255-13.76,0-17.268
		c-7.255-3.507-15.157-7.33-24.426-11.813c-9.271-4.484-14.515,1.659-14.515,11.128c0,0,0,1.199,0,16.063
		C246.374,254.32,251.662,256.777,260.554,251.62z"/>
	<path fill="#005EA8" d="M277.647,252.854c-6.265,3.756-10.757,6.792-16.939,10.572c-13.697,8.378-12.492,23.866-12.492,23.866
		s0,68.055,0,83.873c0,15.824,7.541,19.544,17.301,13.678c2.979-1.789,4.676-2.909,7.739-4.797
		c20.607-12.319,20.637-20.774,20.637-29.284c0-8.511,0-84.97,0-84.97C293.893,250.329,288.173,246.546,277.647,252.854z"/>
	<path fill="#005EA8" d="M458.248,303.014c0-7.305,0-42.144,0-57.595c0-15.452-4.215-23.972-16.717-23.972
		c-15.171,0-16.483,13.485-16.483,24.723c0,11.239,0,38.584,0,64.993c0,21.35,6.37,34.416,14.658,42.844
		c8.287,8.43,18.542,5.336,23.739,0.844c5.196-4.496,6.18-12.223,0-23.18C457.264,320.713,458.248,310.318,458.248,303.014z"/>
	<path fill="#005EA8" d="M533.823,221.447c0,0-16.717-2.296-16.717,25.377c0,28.796,0,43.546,0,59.561
		c0,21.631-10.677,35.258-25.144,35.258c-14.472,0-21.354,6.744-21.354,16.998s8.851,15.313,21.913,15.313
		c32.73,0,57.875-23.32,57.875-72.063c0-38.911,0-40.878,0-55.206C550.397,232.355,547.026,221.447,533.823,221.447z"/>
	<path fill="#005EA8" d="M384.692,254.834c-0.023-0.013-0.049-0.024-0.073-0.037c-0.837,0.023-1.671,0.037-2.494,0.037
		C383.762,254.834,384.508,254.834,384.692,254.834z"/>
	<path fill="#005EA8" d="M740.238,253.054c18.964,0,24.021-7.866,24.021-16.015c0-0.021-0.001-0.041-0.001-0.063
		c0-0.018,0.001-0.039,0.001-0.058c0-8.148-4.776-15.592-24.302-15.592s-24.441,0-37.786,0c-9.249,0-16.33,1.962-19.81,6.996
		c-2.917,3.625-4.807,9.716-4.807,19.55c0,19.526,0,81.115,0,94.46c0,13.344,2.42,25.205,15.592,27.326
		c0.223,0.037,0.439,0.061,0.659,0.086c2.286,0.41,4.877,0.625,7.803,0.625c15.311,0,19.666,0,38.629,0
		c18.964,0,24.021-7.869,24.021-16.014c0-8.148-4.776-15.596-24.302-15.596c-15.73,0-21.984,0-30.796,0c0-7.063,0-16.988,0-27.813
		c8.635,0,11.907,0,27.144,0c18.963,0,24.021-7.865,24.021-16.013c0-8.148-4.775-15.594-24.301-15.594c-15.469,0-19.305,0-26.863,0
		c0-10.221,0-19.547,0-26.287C719.037,253.054,724.794,253.054,740.238,253.054z"/>
</g>
</svg>
