<?xml version="1.0" encoding="UTF-8" standalone="no"?>
<!-- Generator: Adobe Illustrator 15.0.0, SVG Export Plug-In . SVG Version: 6.00 Build 0)  -->

<svg
   version="1.1"
   id="Calque_1"
   x="0px"
   y="0px"
   width="199.739"
   height="247.01289"
   viewBox="0 0 199.73899 247.01288"
   enable-background="new 0 0 841.89 595.28"
   xml:space="preserve"
   sodipodi:docname="icube-svg-short.svg"
   inkscape:version="1.3.2 (1:1.3.2+202311252150+091e20ef0f)"
   xmlns:inkscape="http://www.inkscape.org/namespaces/inkscape"
   xmlns:sodipodi="http://sodipodi.sourceforge.net/DTD/sodipodi-0.dtd"
   xmlns="http://www.w3.org/2000/svg"
   xmlns:svg="http://www.w3.org/2000/svg"><defs
   id="defs20">
	
	
	
	
	
	
	
	
</defs><sodipodi:namedview
   id="namedview20"
   pagecolor="#ffffff"
   bordercolor="#000000"
   borderopacity="0.25"
   inkscape:showpageshadow="2"
   inkscape:pageopacity="0.0"
   inkscape:pagecheckerboard="0"
   inkscape:deskcolor="#d1d1d1"
   inkscape:zoom="1.3647863"
   inkscape:cx="326.42472"
   inkscape:cy="118.6999"
   inkscape:window-width="1850"
   inkscape:window-height="1016"
   inkscape:window-x="0"
   inkscape:window-y="0"
   inkscape:window-maximized="1"
   inkscape:current-layer="Calque_1" />
<linearGradient
   id="SVGID_1_"
   gradientUnits="userSpaceOnUse"
   x1="67.913101"
   y1="233.1846"
   x2="214.3271"
   y2="233.1846"
   gradientTransform="translate(-94.154,-179.07418)">
	<stop
   offset="0"
   style="stop-color:#E3E4E4"
   id="stop1" />
	<stop
   offset="1"
   style="stop-color:#CFD1D2"
   id="stop2" />
</linearGradient>
<path
   fill="url(#SVGID_1_)"
   d="m 142.41,29.985819 c 0,-6.776 -0.776,-12.116 -11.776,-17.389 C 119.63,7.3218191 114.032,4.7458191 109.217,2.3268191 c -6.771,-3.4 -11.177,-2.89200002 -17.709,0.343 -6.718,3.326 -73.239,35.4649999 -80.563,39.1269999 -9.131,4.566 -6.222,8.235 0.822,12.589 7.043,4.355 78.152,48.307001 82.873,51.227001 4.719,2.918 9.537,3.992 16.162,0 6.627,-3.994 18.199,-10.969001 22.727,-13.698001 4.528,-2.729 8.882,-5.853 8.882,-15.849 -0.001,-9.994 -0.001,-46.08 -0.001,-46.08 z"
   id="path2"
   style="fill:url(#SVGID_1_)" />
<linearGradient
   id="SVGID_2_"
   gradientUnits="userSpaceOnUse"
   x1="94.832001"
   y1="336.32031"
   x2="237.2422"
   y2="336.32031"
   gradientTransform="translate(-94.154,-179.07418)">
	<stop
   offset="0"
   style="stop-color:#D9DADB"
   id="stop3" />
	<stop
   offset="0.1334"
   style="stop-color:#D3D4D5"
   id="stop4" />
	<stop
   offset="0.4545"
   style="stop-color:#C6C7C8"
   id="stop5" />
	<stop
   offset="0.5743"
   style="stop-color:#C4C5C7"
   id="stop6" />
	<stop
   offset="0.6288"
   style="stop-color:#BEBFC1"
   id="stop7" />
	<stop
   offset="0.6701"
   style="stop-color:#B4B5B7"
   id="stop8" />
	<stop
   offset="0.7046"
   style="stop-color:#A5A7A8"
   id="stop9" />
	<stop
   offset="0.7199"
   style="stop-color:#9C9E9F"
   id="stop10" />
	<stop
   offset="0.7342"
   style="stop-color:#9C9E9F"
   id="stop11" />
	<stop
   offset="1"
   style="stop-color:#9C9E9F"
   id="stop12" />
</linearGradient>
<path
   fill="url(#SVGID_2_)"
   d="m 0,85.045819 c 0,-14.626 1.982,-21.063 11.251,-15.687 10.83,6.283 72.947,43.891001 80.326,48.330001 7.379,4.442 12.293,5.888 22.059,0 9.768,-5.885 8.474,-5.105 17.605,-10.609 9.133,-5.506 11.169,-1.874 11.169,8.969 0,10.842 0,82.047 0,93.204 0,11.155 -0.409,15.364 -10.798,21.661 -10.389,6.298 -13.69,8.299 -19.952,12.095 -6.262,3.796 -10.968,6.689 -21.56,0 -10.591,-6.691 -73.014,-46.115 -79.451,-50.181 C 4.211,188.76182 0,185.16982 0,169.58382 0,153.99782 0,85.045819 0,85.045819 Z"
   id="path12"
   style="fill:url(#SVGID_2_)" />
<path
   fill="#005ea8"
   d="m 166.4,72.545819 c 6.365,-3.692 15.895,-9.59 24.761,-14.939 8.866,-5.351 7.255,-13.76 0,-17.268 -7.255,-3.507 -15.157,-7.33 -24.426,-11.813 -9.271,-4.484 -14.515,1.659 -14.515,11.128 0,0 0,1.199 0,16.063 0,19.529 5.288,21.986 14.18,16.829 z"
   id="path15" /><path
   fill="#005ea8"
   d="m 183.493,73.779819 c -6.265,3.756 -10.757,6.792 -16.939,10.572 -13.697,8.378 -12.492,23.866001 -12.492,23.866001 0,0 0,68.055 0,83.873 0,15.824 7.541,19.544 17.301,13.678 2.979,-1.789 4.676,-2.909 7.739,-4.797 20.607,-12.319 20.637,-20.774 20.637,-29.284 0,-8.511 0,-84.970001 0,-84.970001 0,-15.463 -5.72,-19.246 -16.246,-12.938 z"
   id="path16" />
</svg>
