<?xml version="1.0" encoding="UTF-8" standalone="no"?>
<!-- Generator: Adobe Illustrator 15.0.0, SVG Export Plug-In . SVG Version: 6.00 Build 0)  -->

<svg
   version="1.1"
   id="Calque_1"
   x="0px"
   y="0px"
   width="47.519001"
   height="181.36342"
   viewBox="0 0 47.518999 181.36341"
   enable-background="new 0 0 841.89 595.28"
   xml:space="preserve"
   sodipodi:docname="i_like_icube.svg"
   inkscape:version="1.3.2 (1:1.3.2+202311252150+091e20ef0f)"
   xmlns:inkscape="http://www.inkscape.org/namespaces/inkscape"
   xmlns:sodipodi="http://sodipodi.sourceforge.net/DTD/sodipodi-0.dtd"
   xmlns="http://www.w3.org/2000/svg"
   xmlns:svg="http://www.w3.org/2000/svg"><defs
   id="defs20">
	
	
	
	
	
	
	
	
</defs><sodipodi:namedview
   id="namedview20"
   pagecolor="#ffffff"
   bordercolor="#000000"
   borderopacity="0.25"
   inkscape:showpageshadow="2"
   inkscape:pageopacity="0.0"
   inkscape:pagecheckerboard="0"
   inkscape:deskcolor="#d1d1d1"
   inkscape:zoom="1.3647863"
   inkscape:cx="174.01992"
   inkscape:cy="91.589431"
   inkscape:window-width="1850"
   inkscape:window-height="1016"
   inkscape:window-x="0"
   inkscape:window-y="0"
   inkscape:window-maximized="1"
   inkscape:current-layer="Calque_1" />
<linearGradient
   id="SVGID_1_"
   gradientUnits="userSpaceOnUse"
   x1="67.913101"
   y1="233.1846"
   x2="214.3271"
   y2="233.1846"
   gradientTransform="translate(-94.154,-179.07418)">
	<stop
   offset="0"
   style="stop-color:#E3E4E4"
   id="stop1" />
	<stop
   offset="1"
   style="stop-color:#CFD1D2"
   id="stop2" />
</linearGradient>

<linearGradient
   id="SVGID_2_"
   gradientUnits="userSpaceOnUse"
   x1="94.832001"
   y1="336.32031"
   x2="237.2422"
   y2="336.32031"
   gradientTransform="translate(-94.154,-179.07418)">
	<stop
   offset="0"
   style="stop-color:#D9DADB"
   id="stop3" />
	<stop
   offset="0.1334"
   style="stop-color:#D3D4D5"
   id="stop4" />
	<stop
   offset="0.4545"
   style="stop-color:#C6C7C8"
   id="stop5" />
	<stop
   offset="0.5743"
   style="stop-color:#C4C5C7"
   id="stop6" />
	<stop
   offset="0.6288"
   style="stop-color:#BEBFC1"
   id="stop7" />
	<stop
   offset="0.6701"
   style="stop-color:#B4B5B7"
   id="stop8" />
	<stop
   offset="0.7046"
   style="stop-color:#A5A7A8"
   id="stop9" />
	<stop
   offset="0.7199"
   style="stop-color:#9C9E9F"
   id="stop10" />
	<stop
   offset="0.7342"
   style="stop-color:#9C9E9F"
   id="stop11" />
	<stop
   offset="1"
   style="stop-color:#9C9E9F"
   id="stop12" />
</linearGradient>

<path
   fill="#005ea8"
   d="m 14.18,45.516314 c 6.365,-3.692 15.895,-9.59 24.761,-14.939 8.866,-5.351 7.255,-13.76 0,-17.268 C 31.686,9.8023141 23.784,5.9793141 14.515,1.4963141 5.244,-2.9876859 0,3.1553141 0,12.624314 c 0,0 0,1.199 0,16.063 0,19.529 5.288,21.986 14.18,16.829 z"
   id="path15" /><path
   fill="#005ea8"
   d="m 31.273,46.750314 c -6.265,3.756 -10.757,6.792 -16.939,10.572 -13.697,8.378 -12.492,23.866001 -12.492,23.866001 0,0 0,68.055005 0,83.873005 0,15.824 7.541,19.544 17.301,13.678 2.979,-1.789 4.676,-2.909 7.739,-4.797 20.607,-12.319 20.637,-20.774 20.637,-29.284 0,-8.511 0,-84.970006 0,-84.970006 0,-15.463 -5.72,-19.246 -16.246,-12.938 z"
   id="path16" />
</svg>
